<svg id="Layer_1" enable-background="new 0 0 512 512" height="512" viewBox="0 0 512 512" width="512" xmlns="http://www.w3.org/2000/svg"><g><path d="m256 22.004c-135.309 0-244.998 109.689-244.998 244.998 0 83.243 41.526 156.777 104.982 201.052l190.287 38.774c111.193-23.19 194.727-121.749 194.727-239.826 0-135.309-109.689-244.998-244.998-244.998z" fill="#ffdd40"/><path d="m256 22.004c-7.094 0-14.113.319-21.054.91-4.938 10.785-7.713 22.759-7.713 35.375v321.558c-.082-.069-.157-.134-.225-.193-33.186-32.34-86.72-32.122-119.636.594-16.489 16.386-24.854 37.895-25.108 59.486 10.357 10.417 21.655 19.894 33.738 28.324l190.265 38.769c21.239-4.432 41.471-11.609 60.303-21.15 3.623-5.108 6.984-10.415 10.029-15.918 13.876-25.079 21.211-53.578 21.211-82.418v-320.147c-40.022-28.457-88.962-45.19-141.81-45.19z" fill="#ffc839"/><path d="m312.522 0c-32.141 0-58.29 26.148-58.29 58.289v329.051c0 9.456-4.733 17.958-12.352 22.187-2.472 1.374-7.62 4.229-18.531-.525-8.376-3.649-14.565-9.417-14.875-9.707-22.671-22.421-59.432-22.396-82.07.103-18.671 18.554-22.159 46.56-10.421 68.656 39.69 27.692 87.952 43.946 140.017 43.946 17.231 0 34.044-1.788 50.271-5.172 38.631-24.931 64.54-69.204 64.54-119.487v-329.052c0-32.141-26.148-58.289-58.289-58.289z" fill="#9483e3"/><path d="m312.522 0c-8.327 0-16.245 1.768-23.417 4.927-.112.284-9.07 23.148 14.962 32.056 24.183 8.964 31.377 20.214 31.377 20.214s11.427 24.333 35.366 10v-8.908c.001-32.141-26.147-58.289-58.288-58.289z" fill="#b5b0f7"/><path d="m370.811 302.691c-1.363-.778-2.971-1.106-4.586-.823-16.564 2.91-25.11-7.139-28.684-13.24-1.42-2.426-4.124-3.842-6.908-3.454-23.655 3.294-34.918-12.007-39.065-19.844-1.31-2.475-3.986-3.924-6.773-3.647-16.192 1.61-24.338-6.898-27.996-12.837-.651-1.058-1.545-1.885-2.567-2.453v140.947c0 9.456-4.733 17.958-12.352 22.187-2.472 1.374-7.62 4.229-18.531-.525-8.376-3.649-14.565-9.417-14.875-9.707-22.671-22.421-59.432-22.396-82.07.103-18.671 18.554-22.159 46.56-10.421 68.656 39.69 27.692 87.952 43.946 140.017 43.946 17.231 0 34.044-1.788 50.271-5.172 38.631-24.931 64.54-69.204 64.54-119.487z" fill="#836cd9"/><path d="m335.444 387.341v-329.052c0-12.66-10.263-22.923-22.923-22.923s-22.923 10.263-22.923 22.923v329.051c0 22.297-11.708 42.647-30.554 53.109-37.311 20.71-73.622-14.224-75.361-15.932-8.93-8.912-23.392-8.935-32.349-.033-8.98 8.924-9.026 23.437-.102 32.418 1.559 1.569 15.874 15.622 38.018 25.716 74.79 34.092 146.194-22.934 146.194-95.277z" fill="#7255ce"/><path d="m335.444 387.341v-100.986c-1.38-.963-3.08-1.421-4.811-1.18-23.655 3.294-34.918-12.007-39.065-19.844-.488-.923-1.167-1.702-1.97-2.303v124.312c0 22.297-11.707 42.647-30.554 53.109-37.311 20.71-73.622-14.224-75.361-15.932-8.93-8.912-23.392-8.935-32.349-.033-8.98 8.924-9.026 23.437-.102 32.418 1.559 1.569 15.874 15.622 38.018 25.716 74.79 34.092 146.194-22.934 146.194-95.277z" fill="#5c45bf"/><circle cx="110.223" cy="264.781" fill="#fffbeb" r="8.25"/><circle cx="444.177" cy="179.076" fill="#fffbeb" r="8.25"/><g fill="#fff2bd"><ellipse cx="144.569" cy="188.738" rx="17.911" ry="17.912" transform="matrix(.189 -.982 .982 .189 -68.102 295.006)"/><ellipse cx="444.177" cy="333.231" rx="14.777" ry="14.777" transform="matrix(.23 -.973 .973 .23 17.809 688.965)"/></g></g></svg>